# xmcd CD database file
#
# Track frame offsets:
#	150
#	16941
#	34711
#	45148
#	72806
#	104195
#	123877
#
# Disc length: 1924 seconds
#
# Revision: 0
# Processed by: cddbd v1.5.2PL0 Copyright (c) Steve Scherf et al.
# Submitted via: CDex 1.78
#
DISCID=50078207
DTITLE=Emil Strandberg - Stockholm Sweden Polyphony
DYEAR=2009
DGENRE=Jazz
TTITLE0=To who it might concern
TTITLE1=Truth
TTITLE2=Patric Thorman
TTITLE3=Stockholm Sweden polyphoniy
TTITLE4=Love no 3
TTITLE5=Siskins
TTITLE6=Constraints
EXTD=YEAR: 2009
EXTT0=
EXTT1=
EXTT2=
EXTT3=
EXTT4=
EXTT5=
EXTT6=
PLAYORDER=
